#!OML:ASF G:\JayActor3\Patient Classification 1\Patient 1\Session 6\male.ASF
:FULLY-SPECIFIED
:DEGREES
1232
root 9.44849 16.241 -2.99158 5.32184 -53.7814 -8.65467
lowerback -0.615083 -5.80463 0.751067
upperback 2.00706 -7.86968 3.01674
thorax 2.73435 -3.9676 2.42877
lowerneck -2.08091 -6.20625 -1.98494
upperneck 27.1809 -7.2478 -9.13946
head 8.50963 -4.81284 -3.35477
rclavicle 1.91703e-014 1.70955e-014
rhumerus -44.0871 8.79277 -85.8416
rradius 100.641
rwrist -88.3498
rhand -37.6975 -23.748
rfingers 7.12502
rthumb -10.7475 -53.4531
lclavicle 1.91703e-014 1.70955e-014
lhumerus -27.9506 -26.6383 100.839
lradius 87.0404
lwrist 66.5728
lhand -40.5967 -5.21205
lfingers 7.12502
lthumb -13.543 24.3275
rfemur -19.5277 11.4901 25.6758
rtibia 40.0825
rfoot -16.7713 0.178549
rtoes 9.70154
lfemur -3.43866 6.92582 -23.6259
ltibia 25.3913
lfoot -39.3811 32.5059
ltoes 14.9516
1233
root 9.45065 16.2404 -2.99255 5.2792 -53.7774 -8.62075
lowerback -0.614708 -5.83 0.743584
upperback 2.02797 -7.90448 3.01754
thorax 2.75837 -3.98536 2.43101
lowerneck -2.08022 -6.22582 -2.00064
upperneck 27.2412 -7.27035 -9.16558
head 8.52931 -4.83023 -3.3659
rclavicle -2.1506e-014 7.95139e-016
rhumerus -44.1875 8.82032 -85.7453
rradius 100.576
rwrist -88.3153
rhand -37.6965 -23.6754
rfingers 7.12502
rthumb -10.7466 -53.3805
lclavicle -2.1506e-014 7.95139e-016
lhumerus -27.9561 -26.6806 100.835
lradius 86.9163
lwrist 66.577
lhand -40.559 -5.14377
lfingers 7.12502
lthumb -13.5066 24.3982
rfemur -19.5258 11.4982 25.6545
rtibia 40.0984
rfoot -16.7827 0.176901
rtoes 9.76563
lfemur -3.42652 6.98817 -23.6361
ltibia 25.3814
lfoot -39.3002 32.4902
ltoes 14.8866
1234
root 9.45272 16.2398 -2.99352 5.2492 -53.7711 -8.60114
lowerback -0.617404 -5.8562 0.744453
upperback 2.04913 -7.94074 3.02045
thorax 2.78362 -4.0037 2.43048
lowerneck -2.07635 -6.24647 -2.01638
upperneck 27.2965 -7.29446 -9.19239
head 8.54661 -4.84823 -3.37696
rclavicle -1.29595e-013 2.34566e-014
rhumerus -44.2838 8.84567 -85.6478
rradius 100.51
rwrist -88.2852
rhand -37.6908 -23.6747
rfingers 7.12502
rthumb -10.741 -53.3801
lclavicle -1.29595e-013 2.34566e-014
lhumerus -27.9619 -26.7135 100.829
lradius 86.7937
lwrist 66.5795
lhand -40.5154 -5.06496
lfingers 7.12502
lthumb -13.4646 24.4798
rfemur -19.5216 11.5074 25.6432
rtibia 40.1093
rfoot -16.7918 0.170267
rtoes 9.81345
lfemur -3.41984 7.05031 -23.636
ltibia 25.3809
lfoot -39.2252 32.4687
ltoes 14.8225
1235
root 9.45475 16.2393 -2.99455 5.23397 -53.765 -8.59598
lowerback -0.623753 -5.88262 0.753344
upperback 2.06947 -7.97763 3.02579
thorax 2.80937 -4.02221 2.42769
lowerneck -2.06897 -6.26797 -2.03296
upperneck 27.3474 -7.31986 -9.2195
head 8.56172 -4.86679 -3.38767
rclavicle -6.33626e-016 9.14409e-015
rhumerus -44.3769 8.86927 -85.5494
rradius 100.442
rwrist -88.2615
rhand -37.6795 -23.7749
rfingers 7.12502
rthumb -10.7301 -53.4809
lclavicle -6.33626e-016 9.14409e-015
lhumerus -27.9687 -26.7344 100.824
lradius 86.6717
lwrist 66.5792
lhand -40.4676 -4.98283
lfingers 7.12502
lthumb -13.4185 24.565
rfemur -19.5179 11.5184 25.6411
rtibia 40.115
rfoot -16.7963 0.159524
rtoes 9.83832
lfemur -3.42124 7.10672 -23.6276
ltibia 25.39
lfoot -39.1636 32.4447
ltoes 14.7665
1236
root 9.45683 16.2389 -2.99565 5.23403 -53.7625 -8.6036
lowerback -0.634002 -5.90819 0.769657
upperback 2.08818 -8.01366 3.03338
thorax 2.83489 -4.04016 2.42287
lowerneck -2.0587 -6.29017 -2.05083
upperneck 27.3947 -7.3463 -9.24677
head 8.57506 -4.88585 -3.39798
rclavicle -8.98258e-014 1.63003e-014
rhumerus -44.4673 8.89055 -85.4502
rradius 100.374
rwrist -88.2448
rhand -37.6685 -23.9337
rfingers 7.12502
rthumb -10.7196 -53.6402
lclavicle -8.98258e-014 1.63003e-014
lhumerus -27.9766 -26.7425 100.818
lradius 86.5487
lwrist 66.5736
lhand -40.4158 -4.90975
lfingers 7.12502
lthumb -13.3686 24.6414
rfemur -19.5181 11.5309 25.6458
rtibia 40.1159
rfoot -16.794 0.148541
rtoes 9.84017
lfemur -3.43256 7.15139 -23.6145
ltibia 25.4075
lfoot -39.1232 32.4228
ltoes 14.7277
1237
root 9.45908 16.2386 -2.99681 5.24845 -53.7673 -8.62164
lowerback -0.647502 -5.93177 0.792625
upperback 2.10481 -8.04722 3.04276
thorax 2.85932 -4.05673 2.41614
lowerneck -2.04623 -6.31277 -2.07044
upperneck 27.4391 -7.37336 -9.27374
head 8.58708 -4.90525 -3.40769
rclavicle -1.45026e-013 1.19271e-014
rhumerus -44.5558 8.90967 -85.3509
rradius 100.305
rwrist -88.2354
rhand -37.6624 -24.1122
rfingers 7.12502
rthumb -10.7136 -53.819
lclavicle -1.45026e-013 1.19271e-014
lhumerus -27.9853 -26.7373 100.814
lradius 86.4221
lwrist 66.5598
lhand -40.3588 -4.85856
lfingers 7.12502
lthumb -13.3137 24.6962
rfemur -19.525 11.5433 25.6544
rtibia 40.1132
rfoot -16.7833 0.142573
rtoes 9.82405
lfemur -3.454 7.18074 -23.6005
ltibia 25.4311
lfoot -39.1089 32.4074
ltoes 14.7131
1238
root 9.46162 16.2385 -2.99799 5.27405 -53.7827 -8.64591
lowerback -0.663248 -5.95227 0.820754
upperback 2.11936 -8.07681 3.05313
thorax 2.88211 -4.07118 2.40766
lowerneck -2.03208 -6.33563 -2.09182
upperneck 27.4802 -7.40079 -9.30045
head 8.59776 -4.92485 -3.41681
rclavicle 5.04665e-014 -1.51076e-014
rhumerus -44.6418 8.92701 -85.2515
rradius 100.236
rwrist -88.2304
rhand -37.663 -24.2666
rfingers 7.12502
rthumb -10.7143 -53.9734
lclavicle 5.04665e-014 -1.51076e-014
lhumerus -27.9937 -26.7196 100.811
lradius 86.2893
lwrist 66.5347
lhand -40.2939 -4.84077
lfingers 7.12502
lthumb -13.2511 24.718
rfemur -19.5406 11.554 25.6628
rtibia 40.1085
rfoot -16.7634 0.147744
rtoes 9.80006
lfemur -3.48447 7.19407 -23.5901
ltibia 25.4575
lfoot -39.1217 32.4018
ltoes 14.7258
1239
root 9.46443 16.2384 -2.99916 5.304 -53.808 -8.67051
lowerback -0.679742 -5.97001 0.850694
upperback 2.13273 -8.10271 3.06345
thorax 2.90368 -4.08373 2.39826
lowerneck -2.01654 -6.35851 -2.11511
upperneck 27.5178 -7.42832 -9.32641
head 8.6071 -4.94448 -3.42511
rclavicle 6.62574e-014 -4.77083e-015
rhumerus -44.7253 8.9431 -85.1528
rradius 100.166
rwrist -88.2246
rhand -37.6689 -24.3714
rfingers 7.12502
rthumb -10.7199 -54.0779
lclavicle 6.62574e-014 -4.77083e-015
lhumerus -28.0007 -26.6908 100.808
lradius 86.1484
lwrist 66.4959
lhand -40.2188 -4.8616
lfingers 7.12502
lthumb -13.1787 24.7019
rfemur -19.5634 11.5608 25.6677
rtibia 40.1033
rfoot -16.7365 0.166711
rtoes 9.78052
lfemur -3.51997 7.19647 -23.5857
ltibia 25.4837
lfoot -39.1538 32.4051
ltoes 14.7602
1240
root 9.46743 16.2384 -3.00033 5.33297 -53.841 -8.6915
lowerback -0.695994 -5.98573 0.879557
upperback 2.14588 -8.12589 3.07323
thorax 2.92482 -4.09492 2.38905
lowerneck -1.99931 -6.38145 -2.14139
upperneck 27.551 -7.45614 -9.35047
head 8.61486 -4.96417 -3.432
rclavicle 1.39882e-013 -1.59028e-014
rhumerus -44.8058 8.95857 -85.0551
rradius 100.095
rwrist -88.2112
rhand -37.6748 -24.4212
rfingers 7.12502
rthumb -10.7256 -54.1274
lclavicle 1.39882e-013 -1.59028e-014
lhumerus -28.0052 -26.6524 100.804
lradius 85.9988
lwrist 66.442
lhand -40.1339 -4.91945
lfingers 7.12502
lthumb -13.0968 24.6493
rfemur -19.5908 11.5637 25.6676
rtibia 40.0987
rfoot -16.7056 0.198656
rtoes 9.77395
lfemur -3.55667 7.19656 -23.5869
ltibia 25.5069
lfoot -39.1918 32.4145
ltoes 14.804
1241
root 9.47053 16.2385 -3.00149 5.35679 -53.8785 -8.70629
lowerback -0.711509 -6.00038 0.904917
upperback 2.15966 -8.14755 3.0822
thorax 2.9465 -4.10541 2.38099
lowerneck -1.97954 -6.40472 -2.17214
upperneck 27.5792 -7.48488 -9.37104
head 8.62076 -4.98417 -3.43665
rclavicle -6.53008e-014 2.10712e-014
rhumerus -44.8838 8.97326 -84.9594
rradius 100.021
rwrist -88.1826
rhand -37.6725 -24.4361
rfingers 7.12502
rthumb -10.7233 -54.1424
lclavicle -6.53008e-014 2.10712e-014
lhumerus -28.0068 -26.6062 100.8
lradius 85.8413
lwrist 66.3734
lhand -40.0441 -5.00248
lfingers 7.12502
lthumb -13.0103 24.5718
rfemur -19.6197 11.564 25.6622
rtibia 40.0952
rfoot -16.6742 0.239826
rtoes 9.7863
lfemur -3.59115 7.2021 -23.5924
ltibia 25.5255
lfoot -39.2239 32.4262
ltoes 14.8451
1242
root 9.47361 16.2385 -3.00268 5.37352 -53.9177 -8.71415
lowerback -0.725967 -6.01471 0.925543
upperback 2.17442 -8.16868 3.0903
thorax 2.96911 -4.11573 2.37465
lowerneck -1.95624 -6.42881 -2.20922
upperneck 27.6019 -7.51557 -9.38613
head 8.62467 -5.00493 -3.4381
rclavicle 6.05424e-014 -4.77083e-015
rhumerus -44.9602 8.98678 -84.8663
rradius 99.9447
rwrist -88.1328
rhand -37.658 -24.4285
rfingers 7.12502
rthumb -10.7094 -54.1356
lclavicle 6.05424e-014 -4.77083e-015
lhumerus -28.0057 -26.5538 100.794
lradius 85.6786
lwrist 66.2928
lhand -39.9601 -5.09338
lfingers 7.12502
lthumb -12.9293 24.4861
rfemur -19.6476 11.5635 25.6526
rtibia 40.0928
rfoot -16.6444 0.284594
rtoes 9.81153
lfemur -3.62147 7.21874 -23.6
ltibia 25.539
lfoot -39.2416 32.4369
ltoes 14.874
1243
root 9.47665 16.2386 -3.00393 5.38305 -53.9572 -8.71596
lowerback -0.738826 -6.02886 0.941622
upperback 2.19012 -8.18945 3.09744
thorax 2.99226 -4.12596 2.36992
lowerneck -1.92815 -6.45438 -2.25399
upperneck 27.6191 -7.54944 -9.39408
head 8.62641 -5.02697 -3.43559
rclavicle -3.38058e-014 7.95139e-015
rhumerus -45.0361 8.99864 -84.7768
rradius 99.865
rwrist -88.0593
rhand -37.6308 -24.4134
rfingers 7.12502
rthumb -10.6832 -54.1218
lclavicle -3.38058e-014 7.95139e-015
lhumerus -28.0025 -26.4965 100.785
lradius 85.5138
lwrist 66.2058
lhand -39.8945 -5.1685
lfingers 7.12502
lthumb -12.8661 24.4149
rfemur -19.6728 11.5649 25.6402
rtibia 40.0913
rfoot -16.6174 0.327949
rtoes 9.8439
lfemur -3.6468 7.24742 -23.6083
ltibia 25.5477
lfoot -39.2433 32.445
ltoes 14.8879
1244
root 9.47965 16.2386 -3.00525 5.38584 -53.9971 -8.71284
lowerback -0.749484 -6.04254 0.954226
upperback 2.20662 -8.20945 3.10325
thorax 3.01526 -4.13587 2.36591
lowerneck -1.89396 -6.48191 -2.30664
upperneck 27.6302 -7.58749 -9.39385
head 8.62559 -5.05064 -3.42869
rclavicle -7.14382e-015 1.70955e-014
rhumerus -45.1121 9.00803 -84.6915
rradius 99.7815
rwrist -87.9629
rhand -37.5968 -24.3819
rfingers 7.12502
rthumb -10.6504 -54.092
lclavicle -7.14382e-015 1.70955e-014
lhumerus -27.9974 -26.4354 100.773
lradius 85.35
lwrist 66.12
lhand -39.8581 -5.20835
lfingers 7.12502
lthumb -12.831 24.3773
rfemur -19.6946 11.5697 25.6263
rtibia 40.0904
rfoot -16.5931 0.366505
rtoes 9.87554
lfemur -3.66699 7.28583 -23.6168
ltibia 25.5526
lfoot -39.2324 32.4512
ltoes 14.8877
1245
root 9.48265 16.2386 -3.00663 5.38232 -54.0374 -8.7064
lowerback -0.756663 -6.05554 0.964946
upperback 2.22387 -8.22836 3.10729
thorax 3.03703 -4.14525 2.36151
lowerneck -1.85205 -6.51156 -2.36616
upperneck 27.6342 -7.63015 -9.38548
head 8.62151 -5.076 -3.41748
rclavicle 1.04337e-013 -2.5842e-014
rhumerus -45.1888 9.01465 -84.6112
rradius 99.6947
rwrist -87.8483
rhand -37.5638 -24.3308
rfingers 7.12502
rthumb -10.6185 -54.0425
lclavicle 1.04337e-013 -2.5842e-014
lhumerus -27.9903 -26.371 100.756
lradius 85.1885
lwrist 66.0433
lhand -39.8555 -5.20119
lfingers 7.12502
lthumb -12.8285 24.3846
rfemur -19.712 11.5788 25.6122
rtibia 40.0902
rfoot -16.5711 0.397941
rtoes 9.89904
lfemur -3.68154 7.33046 -23.6253
ltibia 25.5547
lfoot -39.2141 32.456
ltoes 14.8779
